<?xml version="1.0" encoding="UTF-8"?><svg width="512" height="512" version="1.1" viewBox="0 0 512 512" xmlns="http://www.w3.org/2000/svg" xmlns:xlink="http://www.w3.org/1999/xlink"><!--Generated by IJSVG (https://github.com/iconjar/IJSVG)--><g transform="scale(8)"><path fill="#000" d="M56,13h-48c-0.552,0 -1,0.448 -1,1v36c0,0.553 0.448,1 1,1h48c0.553,0 1,-0.447 1,-1v-36c0,-0.552 -0.447,-1 -1,-1Zm-1,2v19.697l-10.168,-15.252c-0.193,-0.291 -0.535,-0.458 -0.876,-0.444c-0.351,0.016 -0.666,0.213 -0.834,0.52l-11.6,21.266l-11.206,-3.735c-0.292,-0.1 -0.614,-0.056 -0.871,0.116l-10.445,6.964v-29.132h46Zm-46,34v-2.465l11.148,-7.432l11.536,3.845c0.459,0.154 0.962,-0.044 1.194,-0.47l11.208,-20.547l10.914,16.372v10.697h-46Z"></path><path fill="#000" d="M20,31c2.757,0 5,-2.243 5,-5c0,-2.757 -2.243,-5 -5,-5c-2.757,0 -5,2.243 -5,5c0,2.757 2.243,5 5,5Zm0,-8c1.654,0 3,1.346 3,3c0,1.654 -1.346,3 -3,3c-1.654,0 -3,-1.346 -3,-3c0,-1.654 1.346,-3 3,-3Z"></path></g></svg>